<svg id="Layer_1" data-name="Layer 1" xmlns="http://www.w3.org/2000/svg" viewBox="0 0 63.91 55.76"><defs><style>.cls-1,.cls-2{fill:#180136;}.cls-1,.cls-3{stroke:#83e9e6;stroke-miterlimit:10;}.cls-1,.cls-2,.cls-3{stroke-width:0.6px;}.cls-2{stroke:#7300fd;stroke-linejoin:round;}.cls-3{fill:none;}</style></defs><title>f-86-2</title><path class="cls-1" d="M23.45,31.24H13a1.66,1.66,0,0,1-1.65-1.65V26.24a6.85,6.85,0,0,1,6.85-6.85h0a6.85,6.85,0,0,1,6.85,6.85v3.34A1.65,1.65,0,0,1,23.45,31.24Z"/><circle class="cls-1" cx="18.17" cy="16.65" r="4.56"/><path class="cls-1" d="M50.88,43.66H40.47A1.64,1.64,0,0,1,38.83,42l0-3.35a6.85,6.85,0,0,1,6.85-6.85h0a6.84,6.84,0,0,1,6.85,6.85l0,3.34A1.65,1.65,0,0,1,50.88,43.66Z"/><circle class="cls-1" cx="45.6" cy="29.08" r="4.56"/><path class="cls-2" d="M33,36l0,0a10.24,10.24,0,0,0-10.47,0l-.05,0V22.15l.05,0a10.24,10.24,0,0,1,10.47,0l0,0Z"/><path class="cls-2" d="M43.54,36l0,0A10.24,10.24,0,0,0,33,36L33,36V22.15l.05,0a10.24,10.24,0,0,1,10.47,0l0,0Z"/><line class="cls-3" x1="20.63" y1="42.62" x2="20.63" y2="42.62"/><path class="cls-3" d="M30.67,9.08c5,0,12,2,16,7"/><line class="cls-3" x1="46.67" y1="14.08" x2="46.67" y2="16.58"/><line class="cls-3" x1="44.42" y1="16.33" x2="46.92" y2="16.33"/><path class="cls-3" d="M30.92,46.58c-5,0-12-2-16-7"/><line class="cls-3" x1="14.92" y1="41.58" x2="14.92" y2="39.08"/><line class="cls-3" x1="17.17" y1="39.33" x2="14.67" y2="39.33"/></svg>