<svg id="Layer_1" data-name="Layer 1" xmlns="http://www.w3.org/2000/svg" viewBox="0 0 63.91 55.76"><defs><style>.cls-1,.cls-2{fill:none;stroke-miterlimit:10;stroke-width:0.6px;}.cls-1{stroke:#83e9e6;}.cls-2{stroke:#7300fd;}</style></defs><title>f-89-2</title><circle class="cls-1" cx="18.97" cy="11.78" r="3.1"/><path class="cls-1" d="M23.12,26v9.62a1.44,1.44,0,0,1-1.44,1.44h0a1.44,1.44,0,0,1-1.44-1.44v-7.1A1.27,1.27,0,0,0,19,27.27h0a1.27,1.27,0,0,0-1.27,1.27v7.1a1.44,1.44,0,0,1-1.44,1.44h0a1.44,1.44,0,0,1-1.44-1.44V20.54a1.26,1.26,0,0,0-.4-.93L8.4,14.05a1.44,1.44,0,0,1-.07-2l0,0a1.44,1.44,0,0,1,2-.07l5.12,4.79a1.27,1.27,0,0,0,.87.34h5.17a1.29,1.29,0,0,0,.87-.34l5.12-4.79a1.44,1.44,0,0,1,2,.07l0,0a1.44,1.44,0,0,1-.07,2l-6,5.59a1.26,1.26,0,0,0-.4.93v1.48"/><circle class="cls-1" cx="44.97" cy="11.78" r="3.1"/><path class="cls-1" d="M40.75,25.69v9.94a1.44,1.44,0,0,0,1.44,1.44h0a1.44,1.44,0,0,0,1.44-1.44V28.54a1.27,1.27,0,0,1,1.27-1.27h0a1.27,1.27,0,0,1,1.27,1.27v7.09a1.43,1.43,0,0,0,1.44,1.44h0a1.43,1.43,0,0,0,1.44-1.44V20.56a1.27,1.27,0,0,1,.41-.93l6-5.58a1.44,1.44,0,0,0,.07-2l0,0a1.44,1.44,0,0,0-2-.07l-5.12,4.79a1.29,1.29,0,0,1-.87.34H42.37a1.27,1.27,0,0,1-.87-.34l-5.12-4.79a1.44,1.44,0,0,0-2,.07l0,0a1.44,1.44,0,0,0,.07,2l6,5.55a1.26,1.26,0,0,1,.4.93v1.22"/><circle class="cls-2" cx="31.97" cy="21.78" r="3.1"/><path class="cls-2" d="M36.12,36v9.62a1.44,1.44,0,0,1-1.44,1.44h0a1.44,1.44,0,0,1-1.44-1.44v-7.1A1.27,1.27,0,0,0,32,37.27h0a1.27,1.27,0,0,0-1.27,1.27v7.1a1.44,1.44,0,0,1-1.44,1.44h0a1.44,1.44,0,0,1-1.44-1.44V30.54a1.26,1.26,0,0,0-.4-.93l-6-5.56a1.44,1.44,0,0,1-.07-2l0,0a1.44,1.44,0,0,1,2-.07l5.12,4.79a1.27,1.27,0,0,0,.87.34h5.17a1.29,1.29,0,0,0,.87-.34l5.12-4.79a1.44,1.44,0,0,1,2,.07l0,0a1.44,1.44,0,0,1-.07,2l-6,5.59a1.26,1.26,0,0,0-.4.93V36Z"/></svg>