<svg id="Layer_1" data-name="Layer 1" xmlns="http://www.w3.org/2000/svg" viewBox="0 0 63.91 55.76"><defs><style>.cls-1{fill:none;}.cls-1,.cls-2{stroke:#7300fd;}.cls-1,.cls-2,.cls-3{stroke-miterlimit:10;stroke-width:0.6px;}.cls-2,.cls-3{fill:#180136;}.cls-3{stroke:#83e9e6;}</style></defs><title>f</title><path class="cls-1" d="M32,20.27V13.89a3.59,3.59,0,0,1,3.59-3.59h.18a3.6,3.6,0,0,1,3.6,3.59v.88a3.58,3.58,0,0,0,3.59,3.59H43a3.59,3.59,0,0,0,3.59-3.59V4.52"/><circle class="cls-2" cx="31.95" cy="24.41" r="4.14"/><rect class="cls-3" x="19.42" y="23.85" width="25.06" height="13.86"/><rect class="cls-3" x="4.04" y="33.07" width="24.6" height="11.81" rx="4.79" transform="translate(-25.82 41.88) rotate(-71.2)"/><rect class="cls-3" x="41.66" y="26.68" width="11.81" height="24.6" rx="4.79" transform="translate(-10.02 17.41) rotate(-18.8)"/><circle class="cls-2" cx="18.46" cy="29.29" r="6.4"/><line class="cls-1" x1="18.46" y1="24.97" x2="18.46" y2="27.31"/><line class="cls-1" x1="18.46" y1="31.28" x2="18.46" y2="33.62"/><line class="cls-1" x1="14.14" y1="29.29" x2="16.48" y2="29.29"/><line class="cls-1" x1="20.45" y1="29.29" x2="22.79" y2="29.29"/><circle class="cls-2" cx="45.44" cy="29.29" r="6.4"/><circle class="cls-2" cx="45.44" cy="25.87" r="1.46"/><circle class="cls-2" cx="45.44" cy="32.44" r="1.46"/><circle class="cls-2" cx="42.16" cy="29.15" r="1.46"/><circle class="cls-2" cx="48.73" cy="29.15" r="1.46"/><circle class="cls-3" cx="39.3" cy="34.73" r="4.14"/><circle class="cls-3" cx="24.61" cy="34.73" r="4.14"/></svg>