<svg id="Layer_1" data-name="Layer 1" xmlns="http://www.w3.org/2000/svg" viewBox="0 0 63.91 55.76"><defs><style>.cls-1,.cls-3{fill:#180136;stroke-miterlimit:10;stroke-width:0.6px;}.cls-1{stroke:#83e9e6;}.cls-2{fill:#83e9e6;}.cls-3{stroke:#7300fd;}</style></defs><title>f</title><rect class="cls-1" x="13.54" y="14.13" width="33.94" height="16.25" rx="2.64" transform="translate(-4.34 7.72) rotate(-13.47)"/><path class="cls-2" d="M33.49,23.58a2.27,2.27,0,0,0-.42-.9s0,0-.07-.07a3.63,3.63,0,0,0-1.94-.82l-.63-.13a6.67,6.67,0,0,1-1.24-.32,1.27,1.27,0,0,1-.78-.91c-.2-.87.21-1.44,1.26-1.69a3.58,3.58,0,0,1,1.92.15A1.14,1.14,0,0,0,32,19a.38.38,0,0,0,.22-.24.51.51,0,0,0,0-.33c-.06-.25-.42-.43-1.1-.5a4.61,4.61,0,0,0-1.35,0l-.19-.85a1,1,0,0,0-.14-.35c-.08-.07-.19-.08-.37,0a.44.44,0,0,0-.32.2.81.81,0,0,0,0,.41l.21.85a2.37,2.37,0,0,0-1.23.94,2.05,2.05,0,0,0-.19,1.54,2.42,2.42,0,0,0,.45.94,2.12,2.12,0,0,0,.9.61c.19.06.54.15,1.05.26l.82.18.21,0A4.47,4.47,0,0,1,32,23a1.22,1.22,0,0,1,.63.85c.22.89-.23,1.48-1.36,1.76a4.06,4.06,0,0,1-2-.1.72.72,0,0,0-.32,0c-.06,0-.12.09-.18.22s-.07.24,0,.29c0,.24.38.38,1,.47a4.06,4.06,0,0,0,1.24,0l.25,1c0,.21.09.34.15.38a.5.5,0,0,0,.38,0c.17-.05.29-.12.32-.22a1.25,1.25,0,0,0-.05-.41l-.24-1a2.52,2.52,0,0,0,1.43-.95A2,2,0,0,0,33.49,23.58Z"/><rect class="cls-3" x="12.1" y="22.61" width="36.83" height="22.2" rx="2.64"/><path class="cls-3" d="M46.28,44.82H14.74a2.64,2.64,0,0,1-2.64-2.64V28.57H48.92V42.18A2.64,2.64,0,0,1,46.28,44.82Z"/><rect class="cls-1" x="42.42" y="32.36" width="9.39" height="5.24" rx="2.12"/></svg>