<svg id="Layer_1" data-name="Layer 1" xmlns="http://www.w3.org/2000/svg" viewBox="0 0 63.91 55.76"><defs><style>.cls-1,.cls-3{fill:#180136;}.cls-1,.cls-2{stroke:#83e9e6;}.cls-1,.cls-2,.cls-3{stroke-miterlimit:10;stroke-width:0.6px;}.cls-2{fill:none;}.cls-3{stroke:#7300fd;}</style></defs><title>f</title><rect class="cls-1" x="30.57" y="33.61" width="4.62" height="5.55"/><path class="cls-1" d="M28.35,39.16h9.06a3,3,0,0,1,3,3v0a0,0,0,0,1,0,0h-15a0,0,0,0,1,0,0v0A3,3,0,0,1,28.35,39.16Z"/><rect class="cls-1" x="16.14" y="11.05" width="33.47" height="22.93" rx="3.5"/><line class="cls-2" x1="49.61" y1="28.43" x2="15.96" y2="28.43"/><line class="cls-2" x1="30.01" y1="31.02" x2="35.93" y2="31.02"/><rect class="cls-3" x="12.63" y="25.85" width="14.43" height="18.86" rx="2.45"/><line class="cls-3" x1="27.24" y1="41.01" x2="12.45" y2="41.01"/><line class="cls-3" x1="18.73" y1="42.86" x2="21.02" y2="42.86"/><rect class="cls-3" x="44.43" y="31.39" width="7.03" height="13.31" rx="1.33"/><line class="cls-3" x1="51.46" y1="42.49" x2="44.43" y2="42.49"/><line class="cls-3" x1="47.28" y1="43.6" x2="48.66" y2="43.6"/></svg>